<svg width="512" height="512" viewBox="0 0 512 512" fill="none" xmlns="http://www.w3.org/2000/svg">
<rect width="512" height="512" rx="56" fill="white"/>
<g clip-path="url(#clip0_700_646)">
<path d="M97.7988 93.0984H117.492V208.943L158.865 184.119L200.238 208.943V93.0984H299.533C308.312 93.0984 316.73 96.5855 322.938 102.793C329.145 109 332.632 117.419 332.632 126.197V390.984C332.632 408.361 316.91 424.082 299.533 424.082H100.943C83.5665 424.082 67.8447 408.361 67.8447 390.984V126.197C67.8447 109.648 81.5806 94.5878 97.7988 93.0984ZM216.787 225.492V275.14H167.14V308.238H216.787V390.984H249.886V308.238H299.533V275.14H249.886V225.492H216.787Z" fill="#A855F7"/>
</g>
<path d="M417.049 184.132C407.178 184.132 399.446 180.674 393.85 173.758L402.526 165.083C406.298 169.923 411.233 172.344 417.332 172.344C423.618 172.344 426.762 169.578 426.762 164.045C426.762 161.782 426.196 160.022 425.064 158.764C423.933 157.507 422.172 156.627 419.783 156.124L413.748 154.992C407.65 153.861 403.155 151.754 400.263 148.674C397.434 145.531 396.019 141.193 396.019 135.66C396.019 129.248 397.905 124.375 401.677 121.043C405.449 117.711 410.982 116.045 418.275 116.045C427.579 116.045 434.652 119.063 439.493 125.098L430.817 133.774C429.182 131.762 427.328 130.285 425.253 129.342C423.241 128.336 420.852 127.833 418.086 127.833C415.068 127.833 412.868 128.399 411.485 129.531C410.165 130.662 409.504 132.485 409.504 135C409.504 137.2 410.007 138.866 411.013 139.998C412.082 141.13 413.78 141.947 416.106 142.45L422.141 143.676C425.347 144.367 428.082 145.216 430.345 146.222C432.671 147.165 434.557 148.391 436.003 149.9C437.512 151.409 438.581 153.2 439.21 155.275C439.901 157.35 440.247 159.77 440.247 162.536C440.247 169.578 438.267 174.953 434.306 178.662C430.345 182.308 424.593 184.132 417.049 184.132ZM435.43 260.042L436.089 250.413H434.772L431.233 259.548L421.686 280.371L412.221 259.548L408.682 250.413H407.365L408.024 260.042V290H396.995V232.553H409.34L417.159 249.672L421.439 261.935H422.262L426.542 249.672L434.196 232.553H446.459V290H435.43V260.042ZM397.471 343.667H425.155C430.156 343.667 433.847 345.126 436.228 348.043C438.669 350.96 439.89 354.83 439.89 359.652C439.89 362.272 439.562 364.445 438.907 366.171C438.312 367.838 437.508 369.178 436.496 370.19C435.544 371.142 434.442 371.857 433.192 372.333C431.942 372.75 430.662 372.988 429.352 373.047V374.476C430.781 374.476 432.239 374.714 433.728 375.191C435.276 375.667 436.675 376.471 437.925 377.602C439.175 378.673 440.187 380.102 440.961 381.888C441.735 383.615 442.122 385.728 442.122 388.229C442.122 390.67 441.795 392.992 441.14 395.194C440.485 397.338 439.532 399.213 438.282 400.82C437.032 402.428 435.514 403.708 433.728 404.66C431.942 405.553 429.918 406 427.655 406H397.471V343.667ZM410.241 395.194H424.083C425.512 395.194 426.643 394.778 427.477 393.944C428.37 393.111 428.816 391.712 428.816 389.747V385.282C428.816 383.317 428.37 381.918 427.477 381.085C426.643 380.251 425.512 379.834 424.083 379.834H410.241V395.194ZM410.241 369.297H422.029C423.518 369.297 424.678 368.88 425.512 368.046C426.345 367.213 426.762 365.844 426.762 363.939V359.831C426.762 357.926 426.345 356.556 425.512 355.723C424.678 354.889 423.518 354.473 422.029 354.473H410.241V369.297Z" fill="#A855F7"/>
<defs>
<clipPath id="clip0_700_646">
<rect width="392" height="392" fill="white" transform="translate(50 60)"/>
</clipPath>
</defs>
</svg>
